<mxfile host="65bd71144e">
    <diagram name="Building_Blocks" id="KiWshHqjLqgW6be6Xb8G">
        <mxGraphModel dx="1581" dy="666" grid="1" gridSize="10" guides="1" tooltips="1" connect="1" arrows="1" fold="1" page="1" pageScale="1" pageWidth="850" pageHeight="1100" math="0" shadow="0">
            <root>
                <mxCell id="0"/>
                <mxCell id="1" parent="0"/>
                <mxCell id="21" value="" style="rounded=0;whiteSpace=wrap;html=1;fontColor=#030303;" vertex="1" parent="1">
                    <mxGeometry x="10" y="260" width="780" height="650" as="geometry"/>
                </mxCell>
                <mxCell id="2" value="&lt;b&gt;Conceptual Design&lt;/b&gt;" style="rounded=0;whiteSpace=wrap;html=1;verticalAlign=top;" parent="1" vertex="1">
                    <mxGeometry x="120" y="280" width="640" height="490" as="geometry"/>
                </mxCell>
                <mxCell id="3" value="Base Model Implementation" style="rounded=1;whiteSpace=wrap;html=1;" parent="1" vertex="1">
                    <mxGeometry x="140" y="690" width="600" height="60" as="geometry"/>
                </mxCell>
                <mxCell id="4" value="LLM Client (Bedrock Client service)" style="rounded=1;whiteSpace=wrap;html=1;" parent="1" vertex="1">
                    <mxGeometry x="140" y="620" width="600" height="60" as="geometry"/>
                </mxCell>
                <mxCell id="5" value="Agent" style="rounded=1;whiteSpace=wrap;html=1;" parent="1" vertex="1">
                    <mxGeometry x="440" y="480" width="140" height="60" as="geometry"/>
                </mxCell>
                <mxCell id="6" value="Messages" style="rounded=1;whiteSpace=wrap;html=1;" parent="1" vertex="1">
                    <mxGeometry x="590" y="480" width="150" height="60" as="geometry"/>
                </mxCell>
                <mxCell id="7" value="Tool Metadata Management" style="rounded=1;whiteSpace=wrap;html=1;" parent="1" vertex="1">
                    <mxGeometry x="440" y="410" width="140" height="60" as="geometry"/>
                </mxCell>
                <mxCell id="8" value="Prompt Template Management" style="rounded=1;whiteSpace=wrap;html=1;dashed=1;" parent="1" vertex="1">
                    <mxGeometry x="590" y="410" width="150" height="60" as="geometry"/>
                </mxCell>
                <mxCell id="9" value="Model Configuration" style="rounded=1;whiteSpace=wrap;html=1;" parent="1" vertex="1">
                    <mxGeometry x="290" y="550" width="140" height="60" as="geometry"/>
                </mxCell>
                <mxCell id="10" value="Retry API, &lt;br&gt;Fail Safe" style="rounded=1;whiteSpace=wrap;html=1;" parent="1" vertex="1">
                    <mxGeometry x="140" y="550" width="140" height="60" as="geometry"/>
                </mxCell>
                <mxCell id="11" value="Memory&lt;br&gt;Managment" style="rounded=1;whiteSpace=wrap;html=1;dashed=1;" parent="1" vertex="1">
                    <mxGeometry x="440" y="550" width="300" height="60" as="geometry"/>
                </mxCell>
                <mxCell id="12" value="Baseline" style="text;html=1;strokeColor=none;fillColor=none;align=center;verticalAlign=bottom;whiteSpace=wrap;rounded=0;fontStyle=1" parent="1" vertex="1">
                    <mxGeometry y="730" width="120" height="40" as="geometry"/>
                </mxCell>
                <mxCell id="14" value="Components" style="text;html=1;strokeColor=none;fillColor=none;align=center;verticalAlign=top;whiteSpace=wrap;rounded=0;fontStyle=1" parent="1" vertex="1">
                    <mxGeometry y="280" width="120" height="40" as="geometry"/>
                </mxCell>
                <mxCell id="16" value="" style="endArrow=classic;html=1;entryX=0.5;entryY=1;entryDx=0;entryDy=0;strokeWidth=3;fillColor=#dae8fc;strokeColor=#6c8ebf;gradientColor=#7ea6e0;opacity=70;" parent="1" source="12" target="14" edge="1">
                    <mxGeometry width="50" height="50" relative="1" as="geometry">
                        <mxPoint x="390" y="610" as="sourcePoint"/>
                        <mxPoint x="440" y="560" as="targetPoint"/>
                    </mxGeometry>
                </mxCell>
                <mxCell id="17" value="" style="rounded=1;whiteSpace=wrap;html=1;dashed=1;" parent="1" vertex="1">
                    <mxGeometry x="120" y="800" width="80" height="40" as="geometry"/>
                </mxCell>
                <mxCell id="18" value="" style="rounded=1;whiteSpace=wrap;html=1;" parent="1" vertex="1">
                    <mxGeometry x="120" y="860" width="80" height="40" as="geometry"/>
                </mxCell>
                <mxCell id="19" value="In progress Development Compnent" style="text;html=1;strokeColor=none;fillColor=none;align=center;verticalAlign=middle;whiteSpace=wrap;rounded=0;" parent="1" vertex="1">
                    <mxGeometry x="200" y="805" width="240" height="30" as="geometry"/>
                </mxCell>
                <mxCell id="20" value="Available Component" style="text;html=1;strokeColor=none;fillColor=none;align=center;verticalAlign=middle;whiteSpace=wrap;rounded=0;" parent="1" vertex="1">
                    <mxGeometry x="200" y="865" width="160" height="30" as="geometry"/>
                </mxCell>
            </root>
        </mxGraphModel>
    </diagram>
</mxfile>
